<?xml version="1.0" encoding="UTF-8" standalone="no"?>
<svg
   width="16"
   height="16"
   fill="currentColor"
   class="bi bi-box2-heart-fill"
   viewBox="0 0 16 16"
   version="1.1"
   id="svg1"
   sodipodi:docname="icon.svg"
   inkscape:version="1.4 (e7c3feb1, 2024-10-09)"
   xmlns:inkscape="http://www.inkscape.org/namespaces/inkscape"
   xmlns:sodipodi="http://sodipodi.sourceforge.net/DTD/sodipodi-0.dtd"
   xmlns="http://www.w3.org/2000/svg"
   xmlns:svg="http://www.w3.org/2000/svg">
  <defs
     id="defs1" />
  <sodipodi:namedview
     id="namedview1"
     pagecolor="#ffffff"
     bordercolor="#000000"
     borderopacity="0.25"
     inkscape:showpageshadow="2"
     inkscape:pageopacity="0.0"
     inkscape:pagecheckerboard="0"
     inkscape:deskcolor="#d1d1d1"
     inkscape:zoom="17.825327"
     inkscape:cx="8.2186431"
     inkscape:cy="7.4612937"
     inkscape:window-width="1200"
     inkscape:window-height="553"
     inkscape:window-x="209"
     inkscape:window-y="25"
     inkscape:window-maximized="0"
     inkscape:current-layer="svg1" />
  <path
     d="M 3.75,0 C 3.4352427,0 3.1388544,0.14819416 2.95,0.4 L 0.1,4.2 C 0.03508894,4.2865481 0,4.3918149 0,4.5 V 15 c 0,0.552285 0.44771525,1 1,1 h 14 c 0.552285,0 1,-0.447715 1,-1 V 4.5 C 16,4.3918149 15.964911,4.2865481 15.9,4.2 L 13.05,0.4 C 12.861146,0.14819416 12.564757,0 12.25,0 Z M 8.5,4 h 6 L 15,4.667 V 5 H 1 V 4.667 L 1.5,4 h 6 V 1 h 1 z M 8,7.993 C 9.664,6.282 13.825,9.276 8,13.125 2.175,9.275 6.336,6.282 8,7.993"
     id="path1"
     style="fill:#ffffff;fill-opacity:1"
     sodipodi:nodetypes="ssssssssssssscccccccccccccc" />
</svg>
